# xmcd
#
# Track frame offsets:
#	150
#	15432
#	37180
#	54823
#	75439
#	92256
#	104306
#	120971
#	136613
#	147173
#
# Disc length: 2134 seconds
#
# Revision: 1
# Processed by: cddbd v1.5.1PL0 Copyright (c) Steve Scherf et al.
# Submitted via: audiograbber 1.83.01
#
DISCID=6608540a
DTITLE=Brooks Williams - Nectar
DYEAR=2003
DGENRE=
TTITLE0=Birth Of The True
TTITLE1=Forget About Him
TTITLE2=Singing In The Dark
TTITLE3=Half The Grace
TTITLE4=May You Never
TTITLE5=Yellow Hummingbird
TTITLE6=Unexpected Rose
TTITLE7=Great Big Sea
TTITLE8=Mother Earth
TTITLE9=She Loves Me (When I Try)
EXTD=
EXTT0=
EXTT1=
EXTT2=
EXTT3=
EXTT4=
EXTT5=
EXTT6=
EXTT7=
EXTT8=
EXTT9=
PLAYORDER=
